<svg width="40" height="40" viewBox="0 0 40 40" fill="none" xmlns="http://www.w3.org/2000/svg">
<path d="M29.9047 19.8634C29.9043 17.6878 29.0369 15.6013 27.4932 14.0629C25.9496 12.5245 23.8561 11.66 21.673 11.6596M35.5476 19.2894C35.5476 17.5656 35.2069 15.8586 34.5449 14.2661C33.883 12.6735 32.9127 11.2265 31.6896 10.0076C30.4665 8.78879 29.0144 7.822 27.4164 7.16248C25.8183 6.50295 24.1056 6.16361 22.3759 6.16382M21.411 34.489C20.9229 34.2669 20.4364 34.0447 19.9499 33.7804C17.5634 32.4366 15.3711 30.776 13.4332 28.8441C10.922 26.4872 8.85875 23.6975 7.34282 20.6094C6.53187 18.9507 5.98406 17.1766 5.71894 15.3504C5.36126 13.5052 5.56642 11.5955 6.30797 9.86765C6.76544 9.12491 7.31788 8.4446 7.95137 7.84384C8.20844 7.55719 8.52097 7.32526 8.8702 7.16196C9.21943 6.99867 9.59816 6.90737 9.98367 6.89356C10.7858 7.01356 11.5132 7.43194 12.0143 8.066C13.111 9.28061 14.2874 10.3736 15.4443 11.5266C15.8999 11.9158 16.1847 12.4671 16.2368 13.0639C16.2172 13.5666 16.0236 14.045 15.6884 14.4196C15.3028 14.9061 14.8358 15.3504 14.39 15.8142C14.1204 16.073 13.9141 16.3901 13.7871 16.741C13.6602 17.092 13.6159 17.4673 13.6577 17.838C13.9376 18.7056 14.4176 19.4969 15.0587 20.1456C15.8279 21.1915 16.6338 22.2099 17.475 23.1992C19.0439 25.0029 20.9024 26.5346 22.9747 27.7316C23.2617 27.9476 23.6009 28.0839 23.9579 28.1266C24.3149 28.1694 24.6769 28.117 25.007 27.9749C25.6953 27.5906 26.3087 27.083 26.8131 26.4781C27.2502 25.9483 27.8757 25.6073 28.5591 25.5262C29.1676 25.5586 29.7404 25.8181 30.1634 26.2559C30.7101 26.7197 31.1771 27.2662 31.6848 27.7722C32.1925 28.2781 32.5992 28.643 33.0255 29.1068C33.5365 29.5565 34.0165 30.0355 34.4656 30.5436C34.8138 30.9928 34.9814 31.5571 34.9325 32.1214C34.7512 32.7972 34.3606 33.3987 33.8163 33.8404C33.0499 34.6346 32.1187 35.2526 31.0879 35.6511C30.0571 36.0497 28.9514 36.2192 27.848 36.148C25.6139 36.0244 23.425 35.4606 21.411 34.489Z" stroke="white" stroke-width="3" stroke-miterlimit="10" stroke-linecap="round"/>
</svg>
