<svg width="170" height="63" viewBox="0 0 170 63" fill="none" xmlns="http://www.w3.org/2000/svg">
<path d="M79.055 29L72.395 21.77V29H69.38V17.84H72.56L79.085 25.025V17.84H82.085V29H79.055ZM84.0988 17.84H87.1888V26.375H94.0138V29H84.0988V17.84ZM103.233 24.635L101.208 20.09L99.2434 24.635H103.233ZM105.183 29L104.268 26.93H98.2384L97.3384 29H94.2334L99.1834 17.84H103.323L108.498 29H105.183ZM115.003 29H111.418L107.578 17.84H110.893L113.353 25.865L115.693 17.84H119.293L121.648 25.895L124.093 17.84H127.138L123.433 29H119.743L117.373 21.185L115.003 29Z" fill="#EAEAEA"/>
<path d="M76.025 47.165H75.335C70.235 47.165 68.885 43.895 68.885 41.615V41.165C68.885 38.84 70.235 35.675 75.335 35.675H76.025C80.705 35.675 82.265 37.97 82.265 40.085V40.115H79.085C79.04 39.8 78.635 38.225 75.68 38.225C72.95 38.225 72.095 39.755 72.095 41.255V41.465C72.095 42.845 72.965 44.6 75.695 44.6C78.665 44.6 79.04 42.98 79.085 42.635H82.265V42.68C82.265 44.72 80.765 47.165 76.025 47.165ZM89.9425 35.66H90.6025C95.8225 35.66 97.3075 38.735 97.3075 41.165V41.615C97.3075 44.015 95.8225 47.18 90.6025 47.18H89.9425C84.7225 47.18 83.2375 44.015 83.2375 41.615V41.165C83.2375 38.735 84.7225 35.66 89.9425 35.66ZM94.0975 41.285C94.0975 39.905 93.4225 38.21 90.2725 38.21C87.1525 38.21 86.4475 39.905 86.4475 41.285V41.495C86.4475 42.845 87.1975 44.615 90.2725 44.615C93.4075 44.615 94.0975 42.845 94.0975 41.495V41.285ZM98.8175 47V35.84H102.928L106.483 43.4L110.143 35.84H113.998V47H110.983V39.695L107.593 47H105.178L101.788 39.695V47H98.8175ZM123.572 43.43H119.102V47H116.012V35.84H123.572C127.097 35.84 128.192 37.385 128.192 39.545V39.71C128.192 41.825 127.067 43.43 123.572 43.43ZM119.102 38.33V40.94H123.347C124.472 40.94 124.982 40.46 124.982 39.665V39.605C124.982 38.825 124.472 38.33 123.347 38.33H119.102ZM136.26 42.635L134.235 38.09L132.27 42.635H136.26ZM138.21 47L137.295 44.93H131.265L130.365 47H127.26L132.21 35.84H136.35L141.525 47H138.21ZM151.99 47L145.33 39.77V47H142.315V35.84H145.495L152.02 43.025V35.84H155.02V47H151.99ZM161.158 47V42.92L155.623 35.84H159.448L162.793 40.265L166.138 35.84H169.588L164.248 42.935V47H161.158Z" fill="#EAEAEA"/>
<g clip-path="url(#clip0_202_3605)">
<ellipse cx="31.5" cy="31" rx="16.5" ry="12" fill="white"/>
<path d="M54.7152 14.3243C54.6768 13.929 54.3449 13.6268 53.9475 13.6268C48.1556 13.6268 43.6648 9.17121 41.9463 5.02938C41.8266 4.74083 41.5466 4.55225 41.235 4.55225H21.7308C21.4192 4.55225 21.1392 4.74083 21.0195 5.02938C19.2989 9.17138 14.8102 13.6268 9.01828 13.6268C8.62087 13.6268 8.28896 13.929 8.25058 14.3243C7.25479 24.3694 6.63837 33.3484 9.18539 41.5235C12.2562 51.3732 19.4774 57.8941 31.2613 61.4608C31.4058 61.5039 31.5593 61.5039 31.7038 61.4608C43.4883 57.8936 50.7092 51.3726 53.7797 41.5235C56.3267 33.3484 55.7103 24.3694 54.7145 14.3243H54.7152ZM52.3082 41.0599C49.4225 50.3187 42.6081 56.4853 31.4832 59.9089C20.3582 56.4849 13.5437 50.3187 10.6582 41.0599C8.25341 33.3461 8.77955 24.7556 9.71886 15.1607C12.521 14.9858 15.2035 13.9497 17.405 12.1956C19.4733 10.5825 21.1307 8.49213 22.2349 6.10398H40.7321C41.8363 8.49195 43.4936 10.58 45.5619 12.1933C47.7634 13.9473 50.4459 14.9834 53.2481 15.1584C54.1874 24.7556 54.7152 33.3466 52.3082 41.0599ZM50.0818 17.5687C45.5455 16.3373 41.6552 13.3949 39.2187 9.35292C39.0787 9.12344 38.8304 8.98484 38.5639 8.98484H24.402C24.1355 8.98484 23.8872 9.12344 23.7472 9.35292C21.3109 13.3949 17.4205 16.3374 12.8841 17.5687C12.5657 17.6505 12.3331 17.9232 12.3038 18.2527C11.6061 26.2573 11.308 34.6163 13.8369 41.4734C16.5352 48.7871 22.2277 53.8038 31.2388 56.8098C31.3969 56.862 31.5685 56.862 31.7265 56.8098C40.7358 53.8038 46.4284 48.7894 49.1284 41.4734C51.6596 34.6163 51.3615 26.2597 50.6638 18.255L50.6615 18.2527C50.6344 17.9233 50.4018 17.6483 50.0812 17.5688L50.0818 17.5687ZM37.4892 42.1459H24.9961C24.7884 42.1527 24.5874 42.0732 24.4384 41.9277C24.2871 41.7801 24.2035 41.5801 24.2035 41.3711C24.2035 41.1621 24.2871 40.9598 24.4384 40.8144C24.5874 40.669 24.7884 40.5895 24.9961 40.5963H37.4892C37.697 40.5895 37.9002 40.669 38.0492 40.8144C38.1982 40.9598 38.2818 41.1621 38.2818 41.3711C38.2818 41.5801 38.1982 41.7801 38.0492 41.9277C37.9002 42.0732 37.697 42.1527 37.4892 42.1459ZM40.8717 37.9107C38.6024 37.9107 36.7554 35.8113 36.7554 33.228V33.2303C36.7554 33.0235 36.8367 32.8258 36.9812 32.6804C37.1257 32.535 37.3222 32.4532 37.5254 32.4532H38.0447L39.8691 25.8643C38.9388 25.7825 38.0289 25.528 37.1889 25.1144C36.3015 24.6737 35.3193 24.4601 34.3304 24.4896V24.8009C34.3281 25.7597 33.5582 26.5368 32.6053 26.5368H32.2553L32.2575 36.7337H35.0958C35.3036 36.7292 35.5045 36.8064 35.6535 36.9541C35.8048 37.0995 35.8884 37.2995 35.8884 37.5108C35.8884 37.7198 35.8048 37.9198 35.6535 38.0652C35.5045 38.2129 35.3036 38.2901 35.0958 38.2856H27.394C27.184 38.2901 26.9831 38.2129 26.8341 38.0652C26.685 37.9198 26.6015 37.7198 26.6015 37.5108C26.6015 37.2995 26.685 37.0995 26.8341 36.9541C26.9831 36.8064 27.184 36.7292 27.394 36.7337H30.7132V26.5368H30.3633C29.4104 26.5368 28.6404 25.7598 28.6382 24.8032V24.4896C27.6492 24.4601 26.6669 24.6759 25.7796 25.1144C24.9396 25.5302 24.0297 25.7824 23.0994 25.8643L24.9238 32.4532H25.4409V32.4555C25.6463 32.4555 25.8428 32.535 25.9873 32.6804C26.1318 32.8258 26.2131 33.0235 26.2131 33.2303C26.2131 35.8113 24.3661 37.913 22.0968 37.913C19.8275 37.913 17.9805 35.8136 17.9805 33.2303C17.9805 32.8008 18.326 32.4555 18.7505 32.4555H19.2698L21.1146 25.7869C20.3988 25.6619 19.7056 25.437 19.0553 25.1144C18.8724 25.0235 18.7324 24.8644 18.6669 24.669C18.6015 24.4759 18.615 24.2623 18.7053 24.0783C18.8927 23.6943 19.3556 23.5353 19.7372 23.7239C21.4285 24.5554 23.4087 24.5554 25.0999 23.7239C26.2041 23.1763 27.4233 22.9082 28.6516 22.94C28.7849 21.4654 30.0132 20.3361 31.4854 20.3361C32.9553 20.3361 34.1859 21.4654 34.3168 22.94C35.5474 22.9082 36.7667 23.1763 37.8686 23.7239C39.5621 24.5554 41.5401 24.5554 43.2335 23.7239C43.6151 23.5353 44.0757 23.6943 44.2654 24.0783C44.4528 24.4623 44.2948 24.9258 43.9132 25.1143C43.2629 25.437 42.5697 25.6619 41.8561 25.7868L43.7009 32.4555H44.2202C44.6447 32.4555 44.9902 32.8008 44.9902 33.2302C44.9879 35.8113 43.141 37.9107 40.8717 37.9107ZM19.5993 34.0027H24.5894C24.411 35.2819 23.3723 36.2634 22.0943 36.3589C20.8141 36.2612 19.7754 35.2819 19.5993 34.0027ZM22.0943 28.0135L23.3227 32.4508L20.866 32.4531L22.0943 28.0135ZM32.7857 23.1967V24.7985C32.7835 24.9007 32.7022 24.9825 32.6028 24.9825H30.3629C30.2636 24.9825 30.1823 24.9008 30.18 24.7985V23.2012C30.1823 22.4764 30.7648 21.8902 31.4829 21.888C32.2032 21.8903 32.7857 22.4764 32.7857 23.2012L32.7857 23.1967ZM42.0997 32.4554H39.643L40.8714 28.0181L42.0997 32.4554ZM38.3763 34.0027H43.3664C43.188 35.2819 42.1493 36.2612 40.8714 36.3589C39.5934 36.2635 38.5524 35.2819 38.3763 34.0027Z" fill="url(#paint0_linear_202_3605)"/>
<path d="M22.2839 52.5853C22.1295 52.6672 21.975 52.7492 21.8247 52.8312C19.2337 54.2311 17.5638 55.2771 17.537 55.2936C17.3744 55.3942 17.3156 55.6025 17.4026 55.7517C17.4134 55.7686 17.4242 55.7854 17.4373 55.8002C17.5365 55.9119 17.7118 55.9325 17.8523 55.8441C17.8767 55.8298 19.4734 54.8269 21.9676 53.4761C22.0958 53.4064 22.2239 53.3367 22.3563 53.267C22.2821 53.2161 22.2085 53.161 22.1389 53.106C22.1747 52.9601 22.2199 52.7831 22.2839 52.5853Z" fill="white"/>
<path d="M35.9771 50.1256C39.8488 51.536 45.5675 48.6324 48.6327 46.7795C49.0709 46.5145 49.3235 46.0637 49.3066 45.5747C49.2912 45.0919 48.9999 44.6941 48.5543 44.5412C42.9309 42.6051 39.3477 44.5028 39.3122 44.5234C39.226 44.5705 39.1216 44.5506 39.0732 44.4728C39.0247 44.395 39.0396 44.2907 39.1131 44.2246L40.246 43.2063C33.3707 43.3925 30.7468 46.5056 30.5822 46.7065C30.5745 46.7211 30.5607 46.7335 30.5515 46.7417C30.4688 46.8161 30.3502 46.8128 30.2846 46.739C30.236 46.6842 30.2297 46.6026 30.2615 46.5361C30.5093 45.9077 31.4172 44.9059 32.0075 44.2957C24.982 46.5883 22.8893 50.672 22.2842 52.592C23.602 51.889 25.1322 51.1087 26.7848 50.336C31.6243 48.071 38.5606 45.3847 44.1232 45.442C44.3067 45.4439 44.4396 45.5936 44.4209 45.7772C44.4021 45.9609 44.239 46.1075 44.0555 46.1056C38.6244 46.0476 31.8004 48.6975 27.0291 50.9277C25.2999 51.7351 23.7121 52.5482 22.3585 53.2759C26.0703 55.8232 34.8485 52.6565 37.4457 51.6262C36.5666 51.3434 35.7922 50.4852 35.7492 50.4367C35.693 50.3734 35.6926 50.2752 35.7461 50.2006C35.8015 50.128 35.8967 50.0956 35.9771 50.1256Z" fill="white"/>
</g>
<defs>
<linearGradient id="paint0_linear_202_3605" x1="7.38672" y1="4.55225" x2="55.9268" y2="61.1946" gradientUnits="userSpaceOnUse">
<stop stop-color="#2D388A"/>
<stop offset="1" stop-color="#00AEEF"/>
</linearGradient>
<clipPath id="clip0_202_3605">
<rect width="63" height="63" fill="white"/>
</clipPath>
</defs>
</svg>
