<svg width="47" height="48" viewBox="0 0 47 48" fill="none" xmlns="http://www.w3.org/2000/svg">
<path d="M39.4795 24C39.4795 32.836 32.3355 39.98 23.4995 39.98C14.6635 39.98 7.51953 32.836 7.51953 24C7.51953 15.164 14.6635 8.01998 23.4995 8.01998C32.3355 8.01998 39.4795 15.164 39.4795 24ZM9.39953 24C9.39953 31.802 15.6975 38.1 23.4995 38.1C31.3015 38.1 37.5995 31.802 37.5995 24C37.5995 16.198 31.3015 9.89998 23.4995 9.89998C15.6975 9.89998 9.39953 16.198 9.39953 24Z" fill="black"/>
<path d="M14.3586 23.348L15.6663 22.0238L23.5171 29.7766L31.27 21.9257L32.5942 23.2335L23.5337 32.4086L14.3586 23.348Z" fill="black"/>
<path d="M24.3887 15.1064L24.4891 31.0861L22.6091 31.0979L22.5087 15.1183L24.3887 15.1064Z" fill="black"/>
</svg>
