<svg width="64" height="64" viewBox="0 0 64 64" fill="none" xmlns="http://www.w3.org/2000/svg">
<path d="M39.619 46.2887C31.7182 50.2451 22.1316 47.056 18.1752 39.1553C14.2188 31.2545 17.4079 21.6679 25.3086 17.7115C33.2094 13.7551 42.796 16.9442 46.7524 24.8449C50.7088 32.7457 47.5197 42.3323 39.619 46.2887ZM26.1504 19.3925C19.1742 22.8859 16.3628 31.3373 19.8562 38.3135C23.3496 45.2897 31.801 48.1011 38.7772 44.6077C45.7534 41.1143 48.5648 32.6629 45.0714 25.6867C41.578 18.7105 33.1266 15.8991 26.1504 19.3925Z" fill="black"/>
<path d="M36.3571 40.2752L34.5875 39.6989L38.0044 29.2076L27.5131 25.7907L28.0895 24.021L40.3504 28.0143L36.3571 40.2752Z" fill="black"/>
<path d="M24.4966 34.9951L38.7399 27.7503L39.5923 29.426L25.3489 36.6708L24.4966 34.9951Z" fill="black"/>
</svg>
